<?xml version="1.0" encoding="utf-8" standalone="no"?>
<!DOCTYPE svg PUBLIC "-//W3C//DTD SVG 1.1//EN"
  "http://www.w3.org/Graphics/SVG/1.1/DTD/svg11.dtd">
<svg xmlns:xlink="http://www.w3.org/1999/xlink" width="1049.834545pt" height="447.842021pt" viewBox="0 0 1049.834545 447.842021" xmlns="http://www.w3.org/2000/svg" version="1.1">
 <metadata>
  <rdf:RDF xmlns:dc="http://purl.org/dc/elements/1.1/" xmlns:cc="http://creativecommons.org/ns#" xmlns:rdf="http://www.w3.org/1999/02/22-rdf-syntax-ns#">
   <cc:Work>
    <dc:type rdf:resource="http://purl.org/dc/dcmitype/StillImage"/>
    <dc:date>2026-10-01T08:49:51.972804</dc:date>
    <dc:format>image/svg+xml</dc:format>
    <dc:creator>
     <cc:Agent>
      <dc:title>Matplotlib v3.11.2, https://matplotlib.org/</dc:title>
     </cc:Agent>
    </dc:creator>
   </cc:Work>
  </rdf:RDF>
 </metadata>
 <defs>
  <style type="text/css">*{stroke-linejoin: round; stroke-linecap: butt}</style>
 </defs>
 <g id="figure_1">
  <g id="patch_1">
   <path d="M 0 447.842021
L 1049.834545 447.842021
L 1049.834545 0
L 0 0
z
" style="fill: #ffffff"/>
  </g>
  <g id="axes_1">
   <g id="patch_2">
    <path d="M 261.058636 154.162145
L 57.971727 230.319736
L 73.203245 286.168636
L 261.058636 245.551255
L 448.914027 286.168636
L 464.145545 230.319736
z
" clip-path="url(#p434173cd97)" style="fill: #f0f0f0; stroke: #000000; stroke-width: 1.5; stroke-linejoin: miter"/>
   </g>
   <g id="patch_3">
    <path d="M 261.058636 336.940364
L 195.055391 392.789264
L 261.058636 410.559368
L 327.061882 392.789264
z
" clip-path="url(#p434173cd97)" style="fill: #e6e6e6; stroke: #000000; stroke-linejoin: miter"/>
   </g>
   <g id="patch_4">
    <path d="M 261.058636 239.458647
C 263.482304 239.458647 265.807031 238.495714 267.520822 236.781922
C 269.234614 235.068131 270.197547 232.743404 270.197547 230.319736
C 270.197547 227.896069 269.234614 225.571342 267.520822 223.85755
C 265.807031 222.143759 263.482304 221.180825 261.058636 221.180825
C 258.634969 221.180825 256.310242 222.143759 254.59645 223.85755
C 252.882659 225.571342 251.919725 227.896069 251.919725 230.319736
C 251.919725 232.743404 252.882659 235.068131 254.59645 236.781922
C 256.310242 238.495714 258.634969 239.458647 261.058636 239.458647
z
" clip-path="url(#p434173cd97)"/>
   </g>
   <g id="line2d_1">
    <path d="M 261.058636 204.933873
L 261.058636 387.712091
" clip-path="url(#p434173cd97)" style="fill: none; stroke: #000000; stroke-width: 2; stroke-linecap: square"/>
   </g>
   <g id="line2d_2">
    <path d="M 261.058636 402.943609
L 261.058636 331.863191
" clip-path="url(#p434173cd97)" style="fill: none; stroke: #000000; stroke-width: 5; stroke-linecap: square"/>
   </g>
   <g id="line2d_3">
    <path d="M 53.909989 222.703977
L 72.187811 258.244186
" clip-path="url(#p434173cd97)" style="fill: none; stroke: #000000; stroke-width: 4; stroke-linecap: square"/>
   </g>
   <g id="line2d_4">
    <path d="M 63.0489 240.474082
L 261.058636 230.319736
" clip-path="url(#p434173cd97)" style="fill: none; stroke-dasharray: 3.7,1.6; stroke-dashoffset: 0; stroke: #000000"/>
   </g>
   <g id="line2d_5">
    <path d="M 449.929462 222.703977
L 468.207284 258.244186
" clip-path="url(#p434173cd97)" style="fill: none; stroke: #000000; stroke-width: 4; stroke-linecap: square"/>
   </g>
   <g id="line2d_6">
    <path d="M 459.068373 240.474082
L 261.058636 230.319736
" clip-path="url(#p434173cd97)" style="fill: none; stroke-dasharray: 3.7,1.6; stroke-dashoffset: 0; stroke: #000000"/>
   </g>
   <g id="line2d_7">
    <path d="M 17.354345 123.699109
L 63.0489 235.396909
" clip-path="url(#p434173cd97)" style="fill: none; stroke: #000000; stroke-linecap: square"/>
   </g>
   <g id="line2d_8">
    <path d="M 17.354345 301.400155
L 255.981464 230.319736
" clip-path="url(#p434173cd97)" style="fill: none; stroke: #000000; stroke-linecap: square"/>
   </g>
   <g id="line2d_9">
    <path d="M 321.984709 321.708845
L 263.597223 357.249055
" clip-path="url(#p434173cd97)" style="fill: none; stroke: #000000; stroke-linecap: square"/>
   </g>
   <g id="line2d_10">
    <path d="M 347.370573 423.2523
L 311.830364 387.712091
" clip-path="url(#p434173cd97)" style="fill: none; stroke: #000000; stroke-linecap: square"/>
   </g>
   <g id="patch_5">
    <path d="M 261.058636 69.852383
Q 261.058636 100.854855 261.058636 130.068473
" style="fill: none; stroke: #000000; stroke-width: 1.6; stroke-linecap: round"/>
    <path d="M 263.058636 126.068473
L 261.058636 130.068473
L 259.058636 126.068473
z
" style="stroke: #000000; stroke-width: 1.6; stroke-linecap: round"/>
   </g>
   <g id="text_1">
    <text style="font-size: 12px; font-family: 'Times New Roman'; text-anchor: start" x="273.751568" y="98.313245" transform="rotate(-0 273.751568 98.313245)">Flow: nose to tail</text>
   </g>
   <g id="text_2">
    <g id="patch_6">
     <path d="M 15.914345 125.139109
L 129.44372 125.139109
L 129.44372 111.336765
L 15.914345 111.336765
z
" style="fill: #ffffff"/>
    </g>
    <text style="font-size: 12px; font-family: 'Times New Roman'; text-anchor: start" x="17.354345" y="121.109265" transform="rotate(-0 17.354345 121.109265)">Rotating wing-tip vane</text>
   </g>
   <g id="text_3">
    <g id="patch_7">
     <path d="M 15.914345 302.840155
L 98.44622 302.840155
L 98.44622 289.037811
L 15.914345 289.037811
z
" style="fill: #ffffff"/>
    </g>
    <text style="font-size: 12px; font-family: 'Times New Roman'; text-anchor: start" x="17.354345" y="298.810311" transform="rotate(-0 17.354345 298.810311)">Pilot / hip cradle</text>
   </g>
   <g id="text_4">
    <g id="patch_8">
     <path d="M 320.544709 323.148845
L 416.040334 323.148845
L 416.040334 309.346502
L 320.544709 309.346502
z
" style="fill: #ffffff"/>
    </g>
    <text style="font-size: 12px; font-family: 'Times New Roman'; text-anchor: start" x="321.984709" y="319.119002" transform="rotate(-0 321.984709 319.119002)">Aft vertical surface</text>
   </g>
   <g id="text_5">
    <g id="patch_9">
     <path d="M 345.930573 424.6923
L 418.455573 424.6923
L 418.455573 410.889956
L 345.930573 410.889956
z
" style="fill: #ffffff"/>
    </g>
    <text style="font-size: 12px; font-family: 'Times New Roman'; text-anchor: start" x="347.370573" y="420.662456" transform="rotate(-0 347.370573 420.662456)">Horizontal tail</text>
   </g>
   <g id="text_6">
    <text style="font-size: 10px; font-family: 'Times New Roman'; text-anchor: start" x="17.354345" y="438.483818" transform="rotate(-0 17.354345 438.483818)">Conceptual plan view; no dimensions or linkage simultaneity implied</text>
   </g>
   <g id="text_7">
    <text style="font-size: 16px; font-family: 'Times New Roman'; text-anchor: middle" x="261.058636" y="18.31" transform="rotate(-0 261.058636 18.31)">Lilienthal: the tail and the tip devices are separate</text>
   </g>
  </g>
  <g id="axes_2">
   <g id="patch_10">
    <path d="M 788.775909 239.966365
C 789.987743 239.966365 791.150106 239.484898 792.007002 238.628002
C 792.863898 237.771106 793.345365 236.608743 793.345365 235.396909
C 793.345365 234.185075 792.863898 233.022712 792.007002 232.165816
C 791.150106 231.30892 789.987743 230.827454 788.775909 230.827454
C 787.564075 230.827454 786.401712 231.30892 785.544816 232.165816
C 784.68792 233.022712 784.206454 234.185075 784.206454 235.396909
C 784.206454 236.608743 784.68792 237.771106 785.544816 238.628002
C 786.401712 239.484898 787.564075 239.966365 788.775909 239.966365
z
" clip-path="url(#pb63e44627c)"/>
   </g>
   <g id="patch_11">
    <path d="M 844.624809 235.396909
C 844.624809 220.590541 838.736729 206.375457 828.267045 195.905773
C 817.797361 185.43609 803.582278 179.548009 788.775909 179.548009
" clip-path="url(#pb63e44627c)" style="fill: none; stroke: #000000; stroke-width: 1.5; stroke-linejoin: miter"/>
   </g>
   <g id="line2d_11">
    <path d="M 585.689 210.011045
L 991.862818 210.011045
" clip-path="url(#pb63e44627c)" style="fill: none; stroke: #000000; stroke-width: 2; stroke-linecap: square"/>
   </g>
   <g id="line2d_12">
    <path d="M 788.775909 301.400155
L 788.775909 159.239318
" clip-path="url(#pb63e44627c)" style="fill: none; stroke-dasharray: 7.4,3.2; stroke-dashoffset: 0; stroke: #000000; stroke-width: 2"/>
   </g>
   <g id="line2d_13">
    <path d="M 722.772664 235.396909
L 854.779155 235.396909
" clip-path="url(#pb63e44627c)" style="fill: none; stroke: #000000; stroke-width: 5; stroke-linecap: square"/>
   </g>
   <g id="line2d_14">
    <path d="M 870.010673 133.853455
L 788.775909 184.625182
" clip-path="url(#pb63e44627c)" style="fill: none; stroke: #000000; stroke-linecap: square"/>
   </g>
   <g id="line2d_15">
    <path d="M 859.856327 301.400155
L 844.624809 235.396909
" clip-path="url(#pb63e44627c)" style="fill: none; stroke: #000000; stroke-linecap: square"/>
   </g>
   <g id="text_8">
    <text style="font-size: 12px; font-family: 'Times New Roman'; text-anchor: start" x="585.689" y="199.8567" transform="rotate(-0 585.689 199.8567)">Local wing tip</text>
   </g>
   <g id="patch_12">
    <path d="M 687.232455 85.083901
Q 687.232455 116.086373 687.232455 145.299991
" style="fill: none; stroke: #000000; stroke-width: 1.6; stroke-linecap: round"/>
    <path d="M 689.232455 141.299991
L 687.232455 145.299991
L 685.232455 141.299991
z
" style="stroke: #000000; stroke-width: 1.6; stroke-linecap: round"/>
   </g>
   <g id="text_9">
    <text style="font-size: 12px; font-family: 'Times New Roman'; text-anchor: start" x="699.925386" y="136.392041" transform="rotate(-0 699.925386 136.392041)">Flow</text>
   </g>
   <g id="text_10">
    <g id="patch_13">
     <path d="M 868.570673 135.293455
L 998.418173 135.293455
L 998.418173 121.491111
L 868.570673 121.491111
z
" style="fill: #ffffff"/>
    </g>
    <text style="font-size: 12px; font-family: 'Times New Roman'; text-anchor: start" x="870.010673" y="131.263611" transform="rotate(-0 870.010673 131.263611)">Neutral: aligned with flow</text>
   </g>
   <g id="text_11">
    <g id="patch_14">
     <path d="M 858.416327 302.840155
L 976.837577 302.840155
L 976.837577 289.037811
L 858.416327 289.037811
z
" style="fill: #ffffff"/>
    </g>
    <text style="font-size: 12px; font-family: 'Times New Roman'; text-anchor: start" x="859.856327" y="298.810311" transform="rotate(-0 859.856327 298.810311)">Turned: cross-flow drag</text>
   </g>
   <g id="text_12">
    <text style="font-size: 13px; font-family: 'Times New Roman'" transform="translate(560.303136 348.544958)">The dot is the post seen from above.</text>
    <text style="font-size: 13px; font-family: 'Times New Roman'" transform="translate(560.303136 362.326227)">The physical vane remains vertical.</text>
   </g>
   <g id="text_13">
    <text style="font-size: 13px; font-family: 'Times New Roman'" transform="translate(560.303136 409.47103)">Historical hardware: wing-tip rudder</text>
    <text style="font-size: 13px; font-family: 'Times New Roman'" transform="translate(560.303136 423.2523)">Functional term in the paper: roll spoileron</text>
   </g>
   <g id="text_14">
    <text style="font-size: 16px; font-family: 'Times New Roman'; text-anchor: middle" x="788.775909" y="18.31" transform="rotate(-0 788.775909 18.31)">Tip vane: rotation about an upright post</text>
   </g>
  </g>
 </g>
 <defs>
  <clipPath id="p434173cd97">
   <rect x="7.2" y="32.31" width="507.717273" height="406.173818"/>
  </clipPath>
  <clipPath id="pb63e44627c">
   <rect x="534.917273" y="32.31" width="507.717273" height="406.173818"/>
  </clipPath>
 </defs>
</svg>
